<svg width="336" height="54" viewBox="0 0 336 54" fill="none" xmlns="http://www.w3.org/2000/svg">
<path d="M170 24.3559H183.607V21.0573H193.915V32.3277H183.607V29.029H170V42.911C170 44.5602 171.512 45.6598 173.436 45.6599H200.788C206.423 45.6599 215.082 35.9012 206.423 26.6925C214.395 19.2704 207.935 8 200.788 8H173.436C170.687 7.99993 170 9.64927 170 11.4361V24.3559Z" fill="#DE2727"/>
<rect x="181.82" y="16.7965" width="13.7445" height="3.57356" rx="1" fill="white"/>
<rect x="181.82" y="33.015" width="13.7445" height="3.57356" rx="1" fill="white"/>
<path d="M0 24.3559H13.607V21.0573H23.9154V32.3277H13.607V29.029H0V42.911C3.35558e-05 44.5602 1.51193 45.6598 3.43612 45.6599H30.7876C36.4229 45.6599 45.0819 35.9012 36.4229 26.6925C44.3947 19.2704 37.9348 8 30.7876 8H3.43612C0.687224 7.99993 0 9.64927 0 11.4361V24.3559Z" fill="#DE2727"/>
<rect x="11.8203" y="16.7965" width="13.7445" height="3.57356" rx="1" fill="white"/>
<rect x="11.8203" y="33.015" width="13.7445" height="3.57356" rx="1" fill="white"/>
<path d="M46.4622 43V9.9933H52.296V24.2785C52.9171 23.2729 53.8044 22.4669 54.9579 21.8606C56.1261 21.2395 57.5162 20.929 59.1281 20.929C61.228 20.929 62.936 21.5501 64.2521 22.7923C65.5682 24.0345 66.2263 26.0752 66.2263 28.9145V43H60.3924V29.5799C60.3924 28.0864 60.0671 27.0216 59.4164 26.3857C58.7658 25.7499 57.8637 25.4319 56.7102 25.4319C55.6899 25.4319 54.7952 25.7203 54.0262 26.297C53.272 26.8737 52.6953 27.6427 52.296 28.6039V43H46.4622ZM69.8863 36.7447C69.8863 34.5265 70.7588 32.7963 72.5038 31.5541C74.2487 30.2972 76.5261 29.6687 79.3358 29.6687H84.3045V28.1825C84.3045 27.0586 84.0162 26.1861 83.4395 25.565C82.8775 24.9291 81.9311 24.6112 80.6002 24.6112C79.284 24.6112 78.308 24.8774 77.6722 25.4097C77.0363 25.9421 76.7183 26.6519 76.7183 27.5392V27.9163H71.1729V27.4283C71.1729 25.5206 72.0527 23.9531 73.8125 22.7257C75.5723 21.4835 77.9383 20.8624 80.9107 20.8624C83.8979 20.8624 86.1826 21.454 87.7649 22.637C89.3472 23.82 90.1384 25.7129 90.1384 28.3156V37.9425C90.1384 38.8594 90.2123 39.7245 90.3602 40.5378C90.5081 41.3511 90.7225 42.061 91.0035 42.6673V43H85.3027C85.0957 42.6303 84.9182 42.1793 84.7704 41.6469C84.6225 41.0997 84.5264 40.5526 84.482 40.0054C83.994 40.8631 83.1363 41.6395 81.9089 42.3345C80.6815 43.0148 79.1362 43.3549 77.2729 43.3549C75.0695 43.3549 73.2875 42.8004 71.927 41.6913C70.5665 40.5674 69.8863 38.9185 69.8863 36.7447ZM75.6758 36.3232C75.6758 37.388 75.9789 38.2087 76.5852 38.7854C77.2063 39.3474 78.1306 39.6283 79.358 39.6283C80.6445 39.6283 81.7906 39.1921 82.7962 38.3196C83.8018 37.4323 84.3045 36.4268 84.3045 35.3029V33.0181H80.6889C79.0031 33.0181 77.7461 33.2991 76.918 33.861C76.0898 34.423 75.6758 35.2437 75.6758 36.3232ZM95.085 43V21.417H100.786L100.852 24.2119H100.919C101.481 23.2803 102.213 22.5039 103.115 21.8828C104.032 21.2469 105.089 20.929 106.287 20.929C106.642 20.929 106.997 20.9586 107.352 21.0177C107.721 21.0769 107.973 21.136 108.106 21.1952V25.8977C107.84 25.8238 107.529 25.7646 107.174 25.7203C106.834 25.6759 106.457 25.6537 106.043 25.6537C104.993 25.6537 104.009 25.9717 103.093 26.6076C102.191 27.2434 101.496 28.0716 101.008 29.0919V43H95.085ZM108.971 36.7447C108.971 34.5265 109.843 32.7963 111.588 31.5541C113.333 30.2972 115.611 29.6687 118.42 29.6687H123.389V28.1825C123.389 27.0586 123.101 26.1861 122.524 25.565C121.962 24.9291 121.016 24.6112 119.685 24.6112C118.369 24.6112 117.393 24.8774 116.757 25.4097C116.121 25.9421 115.803 26.6519 115.803 27.5392V27.9163H110.257V27.4283C110.257 25.5206 111.137 23.9531 112.897 22.7257C114.657 21.4835 117.023 20.8624 119.995 20.8624C122.982 20.8624 125.267 21.454 126.849 22.637C128.432 23.82 129.223 25.7129 129.223 28.3156V37.9425C129.223 38.8594 129.297 39.7245 129.445 40.5378C129.593 41.3511 129.807 42.061 130.088 42.6673V43H124.387C124.18 42.6303 124.003 42.1793 123.855 41.6469C123.707 41.0997 123.611 40.5526 123.567 40.0054C123.079 40.8631 122.221 41.6395 120.993 42.3345C119.766 43.0148 118.221 43.3549 116.357 43.3549C114.154 43.3549 112.372 42.8004 111.012 41.6913C109.651 40.5674 108.971 38.9185 108.971 36.7447ZM114.76 36.3232C114.76 37.388 115.063 38.2087 115.67 38.7854C116.291 39.3474 117.215 39.6283 118.443 39.6283C119.729 39.6283 120.875 39.1921 121.881 38.3196C122.886 37.4323 123.389 36.4268 123.389 35.3029V33.0181H119.773C118.088 33.0181 116.831 33.2991 116.003 33.861C115.174 34.423 114.76 35.2437 114.76 36.3232ZM131.818 25.7425V21.417H145.682V25.7425H131.818ZM135.301 36.7003V22.9254L135.39 22.5261V14.8955H141.068V35.8796C141.068 37.2253 141.268 38.1126 141.667 38.5414C142.066 38.9555 142.68 39.1625 143.508 39.1625C143.893 39.1625 144.255 39.133 144.595 39.0738C144.95 38.9999 145.29 38.8963 145.615 38.7633V42.9556C145.246 43.1035 144.721 43.2366 144.04 43.3549C143.375 43.4732 142.576 43.5324 141.645 43.5324C139.663 43.5324 138.11 43 136.987 41.9353C135.863 40.8705 135.301 39.1256 135.301 36.7003Z" fill="#DE2727"/>
<path d="M216.573 42V20.417H222.451V42H216.573ZM216.107 13.341C216.107 12.4537 216.403 11.7069 216.995 11.1006C217.586 10.4943 218.429 10.1911 219.523 10.1911C220.618 10.1911 221.453 10.4943 222.03 11.1006C222.621 11.6921 222.917 12.4389 222.917 13.341C222.917 14.2282 222.621 14.9824 222.03 15.6035C221.438 16.2098 220.595 16.513 219.501 16.513C218.407 16.513 217.564 16.2098 216.972 15.6035C216.396 14.9824 216.107 14.2282 216.107 13.341ZM226.333 31.5523V30.8425C226.333 27.6779 227.169 25.0752 228.84 23.0345C230.511 20.9937 232.714 19.9734 235.45 19.9734C237.003 19.9734 238.319 20.2395 239.398 20.7719C240.493 21.2895 241.343 21.9697 241.949 22.8126V8.9933H247.694V42H242.149L242.082 39.1164H242.016C241.454 40.0332 240.604 40.817 239.465 41.4676C238.326 42.1183 236.995 42.4436 235.472 42.4436C232.648 42.4436 230.415 41.4233 228.773 39.3825C227.146 37.327 226.333 34.7169 226.333 31.5523ZM232.256 31.5967C232.256 33.5191 232.662 35.1014 233.476 36.3436C234.289 37.571 235.539 38.1847 237.224 38.1847C238.363 38.1847 239.332 37.8668 240.13 37.2309C240.944 36.5802 241.528 35.8408 241.883 35.0127V27.2934C241.528 26.4653 240.951 25.7554 240.152 25.1639C239.369 24.5576 238.393 24.2545 237.224 24.2545C235.539 24.2545 234.289 24.8682 233.476 26.0956C232.662 27.323 232.256 28.8979 232.256 30.8203V31.5967ZM251.443 31.5523V30.8425C251.443 27.6779 252.279 25.0752 253.95 23.0345C255.621 20.9937 257.824 19.9734 260.56 19.9734C262.113 19.9734 263.429 20.2395 264.508 20.7719C265.603 21.2895 266.453 21.9697 267.059 22.8126V8.9933H272.804V42H267.259L267.192 39.1164H267.126C266.564 40.0332 265.713 40.817 264.575 41.4676C263.436 42.1183 262.105 42.4436 260.582 42.4436C257.758 42.4436 255.525 41.4233 253.883 39.3825C252.256 37.327 251.443 34.7169 251.443 31.5523ZM257.366 31.5967C257.366 33.5191 257.772 35.1014 258.586 36.3436C259.399 37.571 260.649 38.1847 262.334 38.1847C263.473 38.1847 264.442 37.8668 265.24 37.2309C266.054 36.5802 266.638 35.8408 266.993 35.0127V27.2934C266.638 26.4653 266.061 25.7554 265.262 25.1639C264.479 24.5576 263.503 24.2545 262.334 24.2545C260.649 24.2545 259.399 24.8682 258.586 26.0956C257.772 27.323 257.366 28.8979 257.366 30.8203V31.5967ZM277.84 42V20.417H283.718V42H277.84ZM277.374 13.341C277.374 12.4537 277.67 11.7069 278.261 11.1006C278.853 10.4943 279.695 10.1911 280.79 10.1911C281.884 10.1911 282.72 10.4943 283.296 11.1006C283.888 11.6921 284.184 12.4389 284.184 13.341C284.184 14.2282 283.888 14.9824 283.296 15.6035C282.705 16.2098 281.862 16.513 280.768 16.513C279.673 16.513 278.83 16.2098 278.239 15.6035C277.662 14.9824 277.374 14.2282 277.374 13.341ZM288.775 42V20.417H294.409L294.476 23.2341H294.565C295.171 22.2285 296.058 21.43 297.227 20.8384C298.395 20.2321 299.748 19.929 301.286 19.929C303.46 19.929 305.219 20.5427 306.565 21.7701C307.911 22.9975 308.584 25.0752 308.584 28.0032V42H302.75V28.5356C302.75 27.0568 302.425 26.0068 301.774 25.3857C301.138 24.7499 300.243 24.4319 299.09 24.4319C298.099 24.4319 297.212 24.7203 296.428 25.297C295.644 25.859 295.038 26.6131 294.609 27.5596V42H288.775ZM313.198 49.0317L315.039 45.1055C315.645 45.6526 316.584 46.1776 317.856 46.6804C319.128 47.198 320.481 47.4568 321.915 47.4568C323.512 47.4568 324.865 46.9614 325.974 45.9706C327.098 44.9798 327.66 43.3827 327.66 41.1793V39.2938C327.024 40.2107 326.167 40.9501 325.087 41.512C324.022 42.0592 322.684 42.3327 321.072 42.3327C318.351 42.3327 316.177 41.3345 314.551 39.3382C312.939 37.3418 312.133 34.7465 312.133 31.5523V30.8425C312.133 27.6483 312.924 25.0382 314.506 23.0123C316.103 20.9863 318.299 19.9734 321.094 19.9734C322.544 19.9734 323.86 20.2765 325.043 20.8828C326.226 21.4891 327.098 22.2507 327.66 23.1676H327.749L327.815 20.417H333.427V40.5582C333.427 44.1812 332.437 46.9466 330.455 48.8542C328.488 50.7619 325.871 51.7157 322.603 51.7157C320.651 51.7157 318.861 51.4569 317.235 50.9393C315.623 50.4217 314.277 49.7859 313.198 49.0317ZM317.989 31.5967C317.989 33.5191 318.396 35.0866 319.209 36.2992C320.022 37.5119 321.287 38.1182 323.002 38.1182C324.141 38.1182 325.109 37.8002 325.908 37.1643C326.706 36.5137 327.283 35.7743 327.638 34.9461V27.4487C327.283 26.5762 326.699 25.8294 325.886 25.2083C325.087 24.5724 324.118 24.2545 322.98 24.2545C321.279 24.2545 320.022 24.8682 319.209 26.0956C318.396 27.323 317.989 28.8979 317.989 30.8203V31.5967Z" fill="#DE2727"/>
</svg>
