<svg width="83" height="38" viewBox="0 0 83 38" fill="none" xmlns="http://www.w3.org/2000/svg">
<path d="M42 16.3559H55.607V13.0573H65.9154V24.3277H55.607V21.029H42V34.911C42 36.5602 43.5119 37.6598 45.4361 37.6599H72.7876C78.4229 37.6599 87.0819 27.9012 78.4229 18.6925C86.3947 11.2704 79.9348 0 72.7876 0H45.4361C42.6872 -6.71102e-05 42 1.64927 42 3.43612V16.3559Z" fill="#DE2727"/>
<rect x="53.8203" y="8.79654" width="13.7445" height="3.57356" rx="1" fill="white"/>
<rect x="53.8203" y="25.015" width="13.7445" height="3.57356" rx="1" fill="white"/>
<path d="M0 16.3559H13.607V13.0573H23.9154V24.3277H13.607V21.029H0V34.911C3.35558e-05 36.5602 1.51193 37.6598 3.43612 37.6599H30.7876C36.4229 37.6599 45.0819 27.9012 36.4229 18.6925C44.3947 11.2704 37.9348 0 30.7876 0H3.43612C0.687224 -6.71102e-05 0 1.64927 0 3.43612V16.3559Z" fill="#DE2727"/>
<rect x="11.8203" y="8.79654" width="13.7445" height="3.57356" rx="1" fill="white"/>
<rect x="11.8203" y="25.015" width="13.7445" height="3.57356" rx="1" fill="white"/>
</svg>
